{
  "source": "C:\\Users\\Peter\\Desktop\\stuff\\MIUN\\quantitative_research\\video_compression\\videos\\BVI-HD\\BVI-HD_CDVL_videos\\ORIG\\BridgeRiver_1920x1080_30fps.mp4",
  "output": "C:\\Users\\Peter\\Desktop\\stuff\\MIUN\\quantitative_research\\video_compression\\compressed_videos\\BVI-HD\\hevc\\2\\BridgeRiver_1920x1080_30fps_hevc.mp4",
  "codec": "hevc",
  "ok": "Input #0, mov,mp4,m4a,3gp,3g2,mj2, from 'C:\\Users\\Peter\\Desktop\\stuff\\MIUN\\quantitative_research\\video_compression\\videos\\BVI-HD\\BVI-HD_CDVL_videos\\ORIG\\BridgeRiver_1920x1080_30fps.mp4':\n  Metadata:\n    major_brand     : isom\n    minor_version   : 512\n    compatible_brands: isomiso2avc1mp41\n    encoder         : Lavf54.28.101\n  Duration: 00:00:05.00, start: 0.000000, bitrate: 274913 kb/s\n  Stream #0:0[0x1](und): Video: h264 (High 4:4:4 Predictive) (avc1 / 0x31637661), yuv420p(progressive), 1920x1080, 274910 kb/s, 30 fps, 30 tbr, 30 tbn (default)\n    Metadata:\n      handler_name    : VideoHandler\n      vendor_id       : [0][0][0][0]\n[out#0/mp4 @ 00000134e72f1700] Codec AVOption b:a (set bitrate (in bits/s)) has not been used for any stream. The most likely reason is either wrong type (e.g. a video option with no video streams) or that it is a private option of some decoder which was not actually used for any stream.\nStream mapping:\n  Stream #0:0 -> #0:0 (h264 (native) -> hevc (libx265))\nPress [q] to stop, [?] for help\n[libx265 @ 00000134e7d90180] Unknown option: \"aq-mode.\nx265 [info]: HEVC encoder version 4.1+190-8f11c33ac\nx265 [info]: build info [Windows][GCC 15.1.0][64 bit] 10bit\nx265 [info]: using cpu capabilities: MMX2 SSE2Fast LZCNT SSSE3 SSE4.2 AVX FMA3 BMI2 AVX2\nx265 [info]: Main 10 profile, Level-4 (Main tier)\nx265 [info]: Thread pool created using 12 threads\nx265 [info]: Slices                              : 1\nx265 [info]: frame threads / pool features       : 3 / wpp(17 rows)\nx265 [info]: Coding QT: max CU size, min CU size : 64 / 8\nx265 [info]: Residual QT: max TU size, max depth : 32 / 1 inter / 1 intra\nx265 [info]: ME / range / subpel / merge         : star / 57 / 3 / 3\nx265 [info]: Keyframe min / max / scenecut / bias  : 25 / 250 / 40 / 5.00 \nx265 [info]: Lookahead / bframes / badapt        : 25 / 4 / 2\nx265 [info]: b-pyramid / weightp / weightb       : 1 / 1 / 0\nx265 [info]: References / ref-limit  cu / depth  : 4 / on / on\nx265 [info]: AQ: mode / str / qg-size / cu-tree  : 2 / 1.0 / 32 / 1\nx265 [info]: Rate Control / qCompress            : ABR-2000 kbps / 0.60\nx265 [info]: VBV/HRD buffer / max-rate / init    : 2000 / 2000 / 0.750\nx265 [info]: tools: rect limit-modes rd=4 psy-rd=2.00 rdoq=2 psy-rdoq=1.00\nx265 [info]: tools: rskip mode=1 signhide tmvp strong-intra-smoothing lslices=4\nx265 [info]: tools: deblock sao dhdr10-info\nOutput #0, mp4, to 'C:\\Users\\Peter\\Desktop\\stuff\\MIUN\\quantitative_research\\video_compression\\compressed_videos\\BVI-HD\\hevc\\2\\BridgeRiver_1920x1080_30fps_hevc.mp4':\n  Metadata:\n    major_brand     : isom\n    minor_version   : 512\n    compatible_brands: isomiso2avc1mp41\n    encoder         : Lavf62.3.100\n  Stream #0:0(und): Video: hevc (hev1 / 0x31766568), yuv420p10le(tv, progressive), 1920x1080, q=2-31, 2000 kb/s, 30 fps, 15360 tbn (default)\n    Metadata:\n      encoder         : Lavc62.11.100 libx265\n      handler_name    : VideoHandler\n      vendor_id       : [0][0][0][0]\n    Side data:\n      cpb: bitrate max/min/avg: 2000000/0/2000000 buffer size: 2000000 vbv_delay: N/A\nframe=    0 fps=0.0 q=0.0 size=       0KiB time=N/A bitrate=N/A speed=N/A elapsed=0:00:01.02    \nframe=    0 fps=0.0 q=0.0 size=       0KiB time=N/A bitrate=N/A speed=N/A elapsed=0:00:01.54    \nframe=    0 fps=0.0 q=0.0 size=       0KiB time=N/A bitrate=N/A speed=N/A elapsed=0:00:02.07    \nframe=    0 fps=0.0 q=0.0 size=       0KiB time=N/A bitrate=N/A speed=N/A elapsed=0:00:02.60    \nframe=    0 fps=0.0 q=0.0 size=       0KiB time=N/A bitrate=N/A speed=N/A elapsed=0:00:03.13    \nframe=    0 fps=0.0 q=0.0 size=       0KiB time=N/A bitrate=N/A speed=N/A elapsed=0:00:03.65    \nframe=    0 fps=0.0 q=0.0 size=       0KiB time=N/A bitrate=N/A speed=N/A elapsed=0:00:04.19    \nframe=    0 fps=0.0 q=0.0 size=       0KiB time=N/A bitrate=N/A speed=N/A elapsed=0:00:04.69    \nframe=    0 fps=0.0 q=0.0 size=       0KiB time=N/A bitrate=N/A speed=N/A elapsed=0:00:05.22    \nframe=    0 fps=0.0 q=0.0 size=       0KiB time=N/A bitrate=N/A speed=N/A elapsed=0:00:05.74    \nframe=    1 fps=0.2 q=40.4 size=       0KiB time=-00:00:00.03 bitrate=N/A speed=N/A elapsed=0:00:06.27    \nframe=    2 fps=0.3 q=47.7 size=       0KiB time=00:00:00.00 bitrate=N/A speed=   0x elapsed=0:00:06.79    \nframe=    3 fps=0.4 q=50.1 size=       0KiB time=00:00:00.03 bitrate=  10.6kbits/s speed=0.00455x elapsed=0:00:07.31    \nframe=    4 fps=0.5 q=51.0 size=       0KiB time=00:00:00.06 bitrate=   5.3kbits/s speed=0.00852x elapsed=0:00:07.82    \nframe=    4 fps=0.5 q=51.0 size=       0KiB time=00:00:00.06 bitrate=   5.3kbits/s speed=0.00799x elapsed=0:00:08.34    \nframe=    5 fps=0.6 q=51.0 size=       0KiB time=00:00:00.10 bitrate=   3.5kbits/s speed=0.0113x elapsed=0:00:08.86    \nframe=    5 fps=0.5 q=51.0 size=       0KiB time=00:00:00.10 bitrate=   3.5kbits/s speed=0.0107x elapsed=0:00:09.38    \nframe=    5 fps=0.5 q=51.0 size=       0KiB time=00:00:00.10 bitrate=   3.5kbits/s speed=0.0101x elapsed=0:00:09.90    \nframe=    5 fps=0.5 q=51.0 size=       0KiB time=00:00:00.10 bitrate=   3.5kbits/s speed=0.00959x elapsed=0:00:10.43    \nframe=    6 fps=0.5 q=50.1 size=       0KiB time=00:00:00.13 bitrate=   2.6kbits/s speed=0.0121x elapsed=0:00:10.99    \nframe=    6 fps=0.5 q=50.1 size=       0KiB time=00:00:00.13 bitrate=   2.6kbits/s speed=0.0116x elapsed=0:00:11.52    \nframe=    7 fps=0.6 q=42.2 size=       0KiB time=00:00:00.16 bitrate=   2.1kbits/s speed=0.0138x elapsed=0:00:12.04    \nframe=    8 fps=0.6 q=47.0 size=       0KiB time=00:00:00.20 bitrate=   1.8kbits/s speed=0.0159x elapsed=0:00:12.56    \nframe=    9 fps=0.7 q=46.3 size=       0KiB time=00:00:00.23 bitrate=   1.5kbits/s speed=0.0178x elapsed=0:00:13.08    \nframe=    9 fps=0.7 q=46.3 size=       0KiB time=00:00:00.23 bitrate=   1.5kbits/s speed=0.0171x elapsed=0:00:13.61    \nframe=   10 fps=0.7 q=46.9 size=       0KiB time=00:00:00.26 bitrate=   1.3kbits/s speed=0.0188x elapsed=0:00:14.16    \nframe=   10 fps=0.7 q=46.9 size=       0KiB time=00:00:00.26 bitrate=   1.3kbits/s speed=0.0181x elapsed=0:00:14.69    \nframe=   10 fps=0.7 q=46.9 size=       0KiB time=00:00:00.26 bitrate=   1.3kbits/s speed=0.0175x elapsed=0:00:15.22    \nframe=   10 fps=0.6 q=46.9 size=       0KiB time=00:00:00.26 bitrate=   1.3kbits/s speed=0.0169x elapsed=0:00:15.75    \nframe=   11 fps=0.7 q=46.4 size=       0KiB time=00:00:00.30 bitrate=   1.2kbits/s speed=0.0184x elapsed=0:00:16.29    \nframe=   11 fps=0.7 q=46.4 size=       0KiB time=00:00:00.30 bitrate=   1.2kbits/s speed=0.0178x elapsed=0:00:16.86    \nframe=   12 fps=0.7 q=40.1 size=       0KiB time=00:00:00.33 bitrate=   1.1kbits/s speed=0.0192x elapsed=0:00:17.38    \nframe=   12 fps=0.7 q=40.1 size=       0KiB time=00:00:00.33 bitrate=   1.1kbits/s speed=0.0186x elapsed=0:00:17.92    \nframe=   13 fps=0.7 q=45.1 size=       0KiB time=00:00:00.36 bitrate=   1.0kbits/s speed=0.0199x elapsed=0:00:18.45    \nframe=   13 fps=0.7 q=45.1 size=       0KiB time=00:00:00.36 bitrate=   1.0kbits/s speed=0.0193x elapsed=0:00:18.99    \nframe=   14 fps=0.7 q=47.0 size=       0KiB time=00:00:00.40 bitrate=   0.9kbits/s speed=0.0205x elapsed=0:00:19.51    \nframe=   14 fps=0.7 q=47.0 size=       0KiB time=00:00:00.40 bitrate=   0.9kbits/s speed=0.02x elapsed=0:00:20.03    \nframe=   14 fps=0.7 q=47.0 size=       0KiB time=00:00:00.40 bitrate=   0.9kbits/s speed=0.0195x elapsed=0:00:20.56    \nframe=   15 fps=0.7 q=46.9 size=       0KiB time=00:00:00.43 bitrate=   0.8kbits/s speed=0.0205x elapsed=0:00:21.11    \nframe=   15 fps=0.7 q=46.9 size=       0KiB time=00:00:00.43 bitrate=   0.8kbits/s speed=0.02x elapsed=0:00:21.62    \nframe=   15 fps=0.7 q=46.9 size=       0KiB time=00:00:00.43 bitrate=   0.8kbits/s speed=0.0196x elapsed=0:00:22.15    \nframe=   16 fps=0.7 q=46.1 size=       0KiB time=00:00:00.46 bitrate=   0.8kbits/s speed=0.0206x elapsed=0:00:22.67    \nframe=   16 fps=0.7 q=46.1 size=       0KiB time=00:00:00.46 bitrate=   0.8kbits/s speed=0.0201x elapsed=0:00:23.18    \nframe=   16 fps=0.7 q=46.1 size=       0KiB time=00:00:00.46 bitrate=   0.8kbits/s speed=0.0197x elapsed=0:00:23.71    \nframe=   16 fps=0.7 q=46.1 size=       0KiB time=00:00:00.46 bitrate=   0.8kbits/s speed=0.0192x elapsed=0:00:24.25    \nframe=   17 fps=0.7 q=41.2 size=       0KiB time=00:00:00.50 bitrate=   0.7kbits/s speed=0.0202x elapsed=0:00:24.78    \nframe=   18 fps=0.7 q=45.8 size=       0KiB time=00:00:00.53 bitrate=   0.7kbits/s speed=0.0211x elapsed=0:00:25.30    \nframe=   18 fps=0.7 q=45.8 size=       0KiB time=00:00:00.53 bitrate=   0.7kbits/s speed=0.0206x elapsed=0:00:25.82    \nframe=   19 fps=0.7 q=46.0 size=       0KiB time=00:00:00.56 bitrate=   0.6kbits/s speed=0.0215x elapsed=0:00:26.33    \nframe=   19 fps=0.7 q=46.0 size=       0KiB time=00:00:00.56 bitrate=   0.6kbits/s speed=0.0211x elapsed=0:00:26.85    \nframe=   20 fps=0.7 q=46.2 size=       0KiB time=00:00:00.60 bitrate=   0.6kbits/s speed=0.0219x elapsed=0:00:27.38    \nframe=   20 fps=0.7 q=46.2 size=       0KiB time=00:00:00.60 bitrate=   0.6kbits/s speed=0.0215x elapsed=0:00:27.92    \nframe=   20 fps=0.7 q=46.2 size=       0KiB time=00:00:00.60 bitrate=   0.6kbits/s speed=0.0211x elapsed=0:00:28.43    \nframe=   21 fps=0.7 q=46.9 size=       0KiB time=00:00:00.63 bitrate=   0.6kbits/s speed=0.0219x elapsed=0:00:28.95    \nframe=   21 fps=0.7 q=46.9 size=       0KiB time=00:00:00.63 bitrate=   0.6kbits/s speed=0.0215x elapsed=0:00:29.50    \nframe=   21 fps=0.7 q=46.9 size=       0KiB time=00:00:00.63 bitrate=   0.6kbits/s speed=0.0211x elapsed=0:00:30.02    \nframe=   21 fps=0.7 q=46.9 size=       0KiB time=00:00:00.63 bitrate=   0.6kbits/s speed=0.0207x elapsed=0:00:30.54    \nframe=   22 fps=0.7 q=42.5 size=       0KiB time=00:00:00.66 bitrate=   0.5kbits/s speed=0.0215x elapsed=0:00:31.07    \nframe=   22 fps=0.7 q=42.5 size=       0KiB time=00:00:00.66 bitrate=   0.5kbits/s speed=0.0211x elapsed=0:00:31.65    \nframe=   22 fps=0.7 q=42.5 size=       0KiB time=00:00:00.66 bitrate=   0.5kbits/s speed=0.0207x elapsed=0:00:32.17    \nframe=   23 fps=0.7 q=46.4 size=       0KiB time=00:00:00.70 bitrate=   0.5kbits/s speed=0.0214x elapsed=0:00:32.68    \nframe=   24 fps=0.7 q=47.1 size=       0KiB time=00:00:00.73 bitrate=   0.5kbits/s speed=0.0221x elapsed=0:00:33.20    \nframe=   24 fps=0.7 q=47.1 size=       0KiB time=00:00:00.73 bitrate=   0.5kbits/s speed=0.0217x elapsed=0:00:33.72    \nframe=   25 fps=0.7 q=47.2 size=       0KiB time=00:00:00.76 bitrate=   0.5kbits/s speed=0.0224x elapsed=0:00:34.25    \nframe=   25 fps=0.7 q=47.2 size=       0KiB time=00:00:00.76 bitrate=   0.5kbits/s speed=0.022x elapsed=0:00:34.77    \nframe=   25 fps=0.7 q=47.2 size=       0KiB time=00:00:00.76 bitrate=   0.5kbits/s speed=0.0217x elapsed=0:00:35.30    \nframe=   26 fps=0.7 q=42.3 size=       0KiB time=00:00:00.80 bitrate=   0.4kbits/s speed=0.0223x elapsed=0:00:35.83    \nframe=   27 fps=0.7 q=45.5 size=       0KiB time=00:00:00.83 bitrate=   0.4kbits/s speed=0.0229x elapsed=0:00:36.33    \nframe=   27 fps=0.7 q=45.5 size=       0KiB time=00:00:00.83 bitrate=   0.4kbits/s speed=0.0226x elapsed=0:00:36.86    \nframe=   27 fps=0.7 q=45.5 size=       0KiB time=00:00:00.83 bitrate=   0.4kbits/s speed=0.0223x elapsed=0:00:37.37    \nframe=   28 fps=0.7 q=47.0 size=       0KiB time=00:00:00.86 bitrate=   0.4kbits/s speed=0.0229x elapsed=0:00:37.92    \nframe=   29 fps=0.8 q=47.0 size=       0KiB time=00:00:00.90 bitrate=   0.4kbits/s speed=0.0234x elapsed=0:00:38.46    \nframe=   29 fps=0.7 q=47.0 size=       0KiB time=00:00:00.90 bitrate=   0.4kbits/s speed=0.0231x elapsed=0:00:38.97    \nframe=   29 fps=0.7 q=47.0 size=       0KiB time=00:00:00.90 bitrate=   0.4kbits/s speed=0.0228x elapsed=0:00:39.51    \nframe=   29 fps=0.7 q=47.0 size=       0KiB time=00:00:00.90 bitrate=   0.4kbits/s speed=0.0225x elapsed=0:00:40.04    \nframe=   30 fps=0.7 q=47.1 size=     256KiB time=00:00:00.93 bitrate=2247.3kbits/s speed=0.023x elapsed=0:00:40.56    \nframe=   30 fps=0.7 q=47.1 size=     256KiB time=00:00:00.93 bitrate=2247.3kbits/s speed=0.0227x elapsed=0:00:41.08    \nframe=   30 fps=0.7 q=47.1 size=     256KiB time=00:00:00.93 bitrate=2247.3kbits/s speed=0.0224x elapsed=0:00:41.60    \nframe=   31 fps=0.7 q=42.3 size=     256KiB time=00:00:00.96 bitrate=2169.8kbits/s speed=0.0229x elapsed=0:00:42.12    \nframe=   32 fps=0.8 q=43.8 size=     256KiB time=00:00:01.00 bitrate=2097.5kbits/s speed=0.0234x elapsed=0:00:42.65    \nframe=   33 fps=0.8 q=47.0 size=     256KiB time=00:00:01.00 bitrate=2097.5kbits/s speed=0.0232x elapsed=0:00:43.17    \nframe=   33 fps=0.8 q=47.0 size=     256KiB time=00:00:01.03 bitrate=2029.8kbits/s speed=0.0236x elapsed=0:00:43.70    \nframe=   33 fps=0.7 q=47.0 size=     256KiB time=00:00:01.03 bitrate=2029.8kbits/s speed=0.0234x elapsed=0:00:44.22    \nframe=   34 fps=0.8 q=47.0 size=     256KiB time=00:00:01.06 bitrate=1966.4kbits/s speed=0.0238x elapsed=0:00:44.72    \nframe=   34 fps=0.8 q=47.0 size=     256KiB time=00:00:01.06 bitrate=1966.4kbits/s speed=0.0236x elapsed=0:00:45.25    \nframe=   34 fps=0.7 q=47.0 size=     256KiB time=00:00:01.06 bitrate=1966.4kbits/s speed=0.0233x elapsed=0:00:45.76    \nframe=   34 fps=0.7 q=47.0 size=     256KiB time=00:00:01.06 bitrate=1966.4kbits/s speed=0.023x elapsed=0:00:46.34    \nframe=   34 fps=0.7 q=47.0 size=     256KiB time=00:00:01.06 bitrate=1966.4kbits/s speed=0.0228x elapsed=0:00:46.88    \nframe=   34 fps=0.7 q=47.0 size=     256KiB time=00:00:01.06 bitrate=1966.4kbits/s speed=0.0224x elapsed=0:00:47.51    \nframe=   34 fps=0.7 q=47.0 size=     256KiB time=00:00:01.06 bitrate=1966.4kbits/s speed=0.0221x elapsed=0:00:48.16    \nframe=   35 fps=0.7 q=47.1 size=     256KiB time=00:00:01.10 bitrate=1906.8kbits/s speed=0.0226x elapsed=0:00:48.75    \nframe=   35 fps=0.7 q=47.1 size=     256KiB time=00:00:01.10 bitrate=1906.8kbits/s speed=0.0223x elapsed=0:00:49.29    \nframe=   35 fps=0.7 q=47.1 size=     256KiB time=00:00:01.10 bitrate=1906.8kbits/s speed=0.0221x elapsed=0:00:49.83    \nframe=   35 fps=0.7 q=47.1 size=     256KiB time=00:00:01.10 bitrate=1906.8kbits/s speed=0.0218x elapsed=0:00:50.36    \nframe=   35 fps=0.7 q=47.1 size=     256KiB time=00:00:01.10 bitrate=1906.8kbits/s speed=0.0216x elapsed=0:00:50.91    \nframe=   35 fps=0.7 q=47.1 size=     256KiB time=00:00:01.10 bitrate=1906.8kbits/s speed=0.0214x elapsed=0:00:51.44    \nframe=   36 fps=0.7 q=42.7 size=     256KiB time=00:00:01.13 bitrate=1850.7kbits/s speed=0.0218x elapsed=0:00:51.97    \nframe=   37 fps=0.7 q=45.6 size=     256KiB time=00:00:01.16 bitrate=1797.9kbits/s speed=0.0222x elapsed=0:00:52.49    \nframe=   37 fps=0.7 q=45.6 size=     256KiB time=00:00:01.16 bitrate=1797.9kbits/s speed=0.022x elapsed=0:00:53.01    \nframe=   39 fps=0.7 q=47.0 size=     256KiB time=00:00:01.23 bitrate=1700.7kbits/s speed=0.023x elapsed=0:00:53.54    \nframe=   39 fps=0.7 q=47.0 size=     256KiB time=00:00:01.23 bitrate=1700.7kbits/s speed=0.0228x elapsed=0:00:54.09    \nframe=   39 fps=0.7 q=47.0 size=     256KiB time=00:00:01.23 bitrate=1700.7kbits/s speed=0.0226x elapsed=0:00:54.60    \nframe=   40 fps=0.7 q=47.1 size=     256KiB time=00:00:01.26 bitrate=1655.9kbits/s speed=0.023x elapsed=0:00:55.13    \nframe=   41 fps=0.7 q=42.3 size=     256KiB time=00:00:01.30 bitrate=1613.5kbits/s speed=0.0234x elapsed=0:00:55.65    \nframe=   41 fps=0.7 q=42.3 size=     256KiB time=00:00:01.30 bitrate=1613.5kbits/s speed=0.0231x elapsed=0:00:56.17    \nframe=   41 fps=0.7 q=42.3 size=     256KiB time=00:00:01.30 bitrate=1613.5kbits/s speed=0.0229x elapsed=0:00:56.70    \nframe=   42 fps=0.7 q=46.0 size=     256KiB time=00:00:01.33 bitrate=1573.1kbits/s speed=0.0233x elapsed=0:00:57.22    \nframe=   42 fps=0.7 q=46.0 size=     256KiB time=00:00:01.33 bitrate=1573.1kbits/s speed=0.0231x elapsed=0:00:57.74    \nframe=   42 fps=0.7 q=46.0 size=     256KiB time=00:00:01.33 bitrate=1573.1kbits/s speed=0.0229x elapsed=0:00:58.28    \nframe=   43 fps=0.7 q=47.1 size=     256KiB time=00:00:01.36 bitrate=1534.8kbits/s speed=0.0232x elapsed=0:00:58.79    \nframe=   44 fps=0.7 q=47.1 size=     256KiB time=00:00:01.40 bitrate=1498.2kbits/s speed=0.0236x elapsed=0:00:59.31    \nframe=   44 fps=0.7 q=47.1 size=     256KiB time=00:00:01.40 bitrate=1498.2kbits/s speed=0.0234x elapsed=0:00:59.83    \nframe=   44 fps=0.7 q=47.1 size=     256KiB time=00:00:01.40 bitrate=1498.2kbits/s speed=0.0232x elapsed=0:01:00.34    \nframe=   45 fps=0.7 q=47.1 size=     256KiB time=00:00:01.43 bitrate=1463.4kbits/s speed=0.0236x elapsed=0:01:00.86    \nframe=   45 fps=0.7 q=47.1 size=     256KiB time=00:00:01.43 bitrate=1463.4kbits/s speed=0.0234x elapsed=0:01:01.36    \nframe=   45 fps=0.7 q=47.1 size=     256KiB time=00:00:01.43 bitrate=1463.4kbits/s speed=0.0232x elapsed=0:01:01.89    \nframe=   45 fps=0.7 q=47.1 size=     256KiB time=00:00:01.43 bitrate=1463.4kbits/s speed=0.023x elapsed=0:01:02.42    \nframe=   45 fps=0.7 q=47.1 size=     256KiB time=00:00:01.43 bitrate=1463.4kbits/s speed=0.0228x elapsed=0:01:02.93    \nframe=   46 fps=0.7 q=42.5 size=     256KiB time=00:00:01.46 bitrate=1430.1kbits/s speed=0.0231x elapsed=0:01:03.45    \nframe=   47 fps=0.7 q=46.1 size=     256KiB time=00:00:01.50 bitrate=1398.3kbits/s speed=0.0234x elapsed=0:01:03.99    \nframe=   48 fps=0.7 q=47.1 size=     256KiB time=00:00:01.53 bitrate=1367.9kbits/s speed=0.0238x elapsed=0:01:04.53    \nframe=   48 fps=0.7 q=47.1 size=     256KiB time=00:00:01.53 bitrate=1367.9kbits/s speed=0.0236x elapsed=0:01:05.10    \nframe=   49 fps=0.7 q=47.1 size=     256KiB time=00:00:01.56 bitrate=1338.8kbits/s speed=0.0239x elapsed=0:01:05.62    \nframe=   49 fps=0.7 q=47.1 size=     256KiB time=00:00:01.56 bitrate=1338.8kbits/s speed=0.0237x elapsed=0:01:06.15    \nframe=   49 fps=0.7 q=47.1 size=     256KiB time=00:00:01.56 bitrate=1338.8kbits/s speed=0.0235x elapsed=0:01:06.66    \nframe=   49 fps=0.7 q=47.1 size=     256KiB time=00:00:01.56 bitrate=1338.8kbits/s speed=0.0233x elapsed=0:01:07.21    \nframe=   50 fps=0.7 q=47.1 size=     256KiB time=00:00:01.60 bitrate=1310.9kbits/s speed=0.0236x elapsed=0:01:07.75    \nframe=   50 fps=0.7 q=47.1 size=     256KiB time=00:00:01.60 bitrate=1310.9kbits/s speed=0.0234x elapsed=0:01:08.27    \nframe=   50 fps=0.7 q=47.1 size=     256KiB time=00:00:01.60 bitrate=1310.9kbits/s speed=0.0233x elapsed=0:01:08.77    \nframe=   50 fps=0.7 q=47.1 size=     256KiB time=00:00:01.60 bitrate=1310.9kbits/s speed=0.0231x elapsed=0:01:09.31    \nframe=   51 fps=0.7 q=42.5 size=     256KiB time=00:00:01.63 bitrate=1284.2kbits/s speed=0.0234x elapsed=0:01:09.82    \nframe=   52 fps=0.7 q=46.0 size=     256KiB time=00:00:01.66 bitrate=1258.5kbits/s speed=0.0237x elapsed=0:01:10.35    \nframe=   52 fps=0.7 q=46.0 size=     256KiB time=00:00:01.66 bitrate=1258.5kbits/s speed=0.0235x elapsed=0:01:10.88    \nframe=   52 fps=0.7 q=46.0 size=     256KiB time=00:00:01.66 bitrate=1258.5kbits/s speed=0.0233x elapsed=0:01:11.38    \nframe=   53 fps=0.7 q=47.2 size=     256KiB time=00:00:01.70 bitrate=1233.8kbits/s speed=0.0236x elapsed=0:01:11.90    \nframe=   54 fps=0.7 q=47.1 size=     256KiB time=00:00:01.73 bitrate=1210.1kbits/s speed=0.0239x elapsed=0:01:12.43    \nframe=   54 fps=0.7 q=47.1 size=     256KiB time=00:00:01.73 bitrate=1210.1kbits/s speed=0.0237x elapsed=0:01:12.98    \nframe=   54 fps=0.7 q=47.1 size=     256KiB time=00:00:01.73 bitrate=1210.1kbits/s speed=0.0236x elapsed=0:01:13.50    \nframe=   54 fps=0.7 q=47.1 size=     256KiB time=00:00:01.73 bitrate=1210.1kbits/s speed=0.0234x elapsed=0:01:14.04    \nframe=   55 fps=0.7 q=47.1 size=     256KiB time=00:00:01.76 bitrate=1187.3kbits/s speed=0.0237x elapsed=0:01:14.57    \nframe=   55 fps=0.7 q=47.1 size=     256KiB time=00:00:01.76 bitrate=1187.3kbits/s speed=0.0235x elapsed=0:01:15.11    \nframe=   55 fps=0.7 q=47.1 size=     256KiB time=00:00:01.76 bitrate=1187.3kbits/s speed=0.0234x elapsed=0:01:15.62    \nframe=   56 fps=0.7 q=42.4 size=     256KiB time=00:00:01.80 bitrate=1165.3kbits/s speed=0.0236x elapsed=0:01:16.14    \nframe=   57 fps=0.7 q=46.0 size=     256KiB time=00:00:01.83 bitrate=1144.1kbits/s speed=0.0239x elapsed=0:01:16.67    \nframe=   57 fps=0.7 q=46.0 size=     256KiB time=00:00:01.83 bitrate=1144.1kbits/s speed=0.0237x elapsed=0:01:17.19    \nframe=   58 fps=0.7 q=47.1 size=     256KiB time=00:00:01.86 bitrate=1123.7kbits/s speed=0.024x elapsed=0:01:17.72    \nframe=   58 fps=0.7 q=47.1 size=     256KiB time=00:00:01.86 bitrate=1123.7kbits/s speed=0.0239x elapsed=0:01:18.24    \nframe=   58 fps=0.7 q=47.1 size=     256KiB time=00:00:01.86 bitrate=1123.7kbits/s speed=0.0237x elapsed=0:01:18.78    \nframe=   59 fps=0.7 q=47.1 size=     256KiB time=00:00:01.90 bitrate=1103.9kbits/s speed=0.024x elapsed=0:01:19.32    \nframe=   60 fps=0.8 q=47.1 size=     256KiB time=00:00:01.93 bitrate=1084.9kbits/s speed=0.0242x elapsed=0:01:19.87    \nframe=   60 fps=0.7 q=47.1 size=     256KiB time=00:00:01.93 bitrate=1084.9kbits/s speed=0.0241x elapsed=0:01:20.38    \nframe=   60 fps=0.7 q=47.1 size=     256KiB time=00:00:01.93 bitrate=1084.9kbits/s speed=0.0239x elapsed=0:01:20.90    \nframe=   60 fps=0.7 q=47.1 size=     256KiB time=00:00:01.93 bitrate=1084.9kbits/s speed=0.0237x elapsed=0:01:21.42    \nframe=   60 fps=0.7 q=47.1 size=     256KiB time=00:00:01.93 bitrate=1084.9kbits/s speed=0.0236x elapsed=0:01:21.95    \nframe=   61 fps=0.7 q=42.6 size=     256KiB time=00:00:01.96 bitrate=1066.5kbits/s speed=0.0238x elapsed=0:01:22.49    \nframe=   61 fps=0.7 q=42.6 size=     256KiB time=00:00:01.96 bitrate=1066.5kbits/s speed=0.0237x elapsed=0:01:23.03    \nframe=   61 fps=0.7 q=42.6 size=     256KiB time=00:00:01.96 bitrate=1066.5kbits/s speed=0.0235x elapsed=0:01:23.54    \nframe=   62 fps=0.7 q=46.0 size=     512KiB time=00:00:02.00 bitrate=2097.3kbits/s speed=0.0238x elapsed=0:01:24.06    \nframe=   62 fps=0.7 q=46.0 size=     512KiB time=00:00:02.00 bitrate=2097.3kbits/s speed=0.0236x elapsed=0:01:24.60    \nframe=   62 fps=0.7 q=46.0 size=     512KiB time=00:00:02.00 bitrate=2097.3kbits/s speed=0.0235x elapsed=0:01:25.12    \nframe=   64 fps=0.7 q=47.1 size=     512KiB time=00:00:02.06 bitrate=2029.7kbits/s speed=0.0241x elapsed=0:01:25.64    \nframe=   65 fps=0.8 q=47.0 size=     512KiB time=00:00:02.10 bitrate=1997.5kbits/s speed=0.0244x elapsed=0:01:26.16    \nframe=   65 fps=0.7 q=47.0 size=     512KiB time=00:00:02.10 bitrate=1997.5kbits/s speed=0.0242x elapsed=0:01:26.75    \nframe=   65 fps=0.7 q=47.0 size=     512KiB time=00:00:02.10 bitrate=1997.5kbits/s speed=0.0241x elapsed=0:01:27.27    \nframe=   65 fps=0.7 q=47.0 size=     512KiB time=00:00:02.10 bitrate=1997.5kbits/s speed=0.0239x elapsed=0:01:27.81    \nframe=   65 fps=0.7 q=47.0 size=     512KiB time=00:00:02.10 bitrate=1997.5kbits/s speed=0.0238x elapsed=0:01:28.36    \nframe=   65 fps=0.7 q=47.0 size=     512KiB time=00:00:02.10 bitrate=1997.5kbits/s speed=0.0236x elapsed=0:01:29.00    \nframe=   65 fps=0.7 q=47.0 size=     512KiB time=00:00:02.10 bitrate=1997.5kbits/s speed=0.0234x elapsed=0:01:29.65    \nframe=   65 fps=0.7 q=47.0 size=     512KiB time=00:00:02.10 bitrate=1997.5kbits/s speed=0.0233x elapsed=0:01:30.29    \nframe=   65 fps=0.7 q=47.0 size=     512KiB time=00:00:02.10 bitrate=1997.5kbits/s speed=0.0231x elapsed=0:01:30.93    \nframe=   65 fps=0.7 q=47.0 size=     512KiB time=00:00:02.10 bitrate=1997.5kbits/s speed=0.023x elapsed=0:01:31.48    \nframe=   65 fps=0.7 q=47.0 size=     512KiB time=00:00:02.10 bitrate=1997.5kbits/s speed=0.0228x elapsed=0:01:32.02    \nframe=   66 fps=0.7 q=42.6 size=     512KiB time=00:00:02.13 bitrate=1966.2kbits/s speed=0.0231x elapsed=0:01:32.54    \nframe=   66 fps=0.7 q=42.6 size=     512KiB time=00:00:02.13 bitrate=1966.2kbits/s speed=0.0229x elapsed=0:01:33.06    \nframe=   66 fps=0.7 q=42.6 size=     512KiB time=00:00:02.13 bitrate=1966.2kbits/s speed=0.0228x elapsed=0:01:33.57    \nframe=   66 fps=0.7 q=42.6 size=     512KiB time=00:00:02.13 bitrate=1966.2kbits/s speed=0.0227x elapsed=0:01:34.09    \nframe=   66 fps=0.7 q=42.6 size=     512KiB time=00:00:02.13 bitrate=1966.2kbits/s speed=0.0225x elapsed=0:01:34.61    \nframe=   67 fps=0.7 q=46.0 size=     512KiB time=00:00:02.16 bitrate=1936.0kbits/s speed=0.0228x elapsed=0:01:35.14    \nframe=   67 fps=0.7 q=46.0 size=     512KiB time=00:00:02.16 bitrate=1936.0kbits/s speed=0.0226x elapsed=0:01:35.69    \nframe=   67 fps=0.7 q=46.0 size=     512KiB time=00:00:02.16 bitrate=1936.0kbits/s speed=0.0225x elapsed=0:01:36.23    \nframe=   67 fps=0.7 q=46.0 size=     512KiB time=00:00:02.16 bitrate=1936.0kbits/s speed=0.0224x elapsed=0:01:36.76    \nframe=   68 fps=0.7 q=47.2 size=     512KiB time=00:00:02.20 bitrate=1906.7kbits/s speed=0.0226x elapsed=0:01:37.29    \nframe=   69 fps=0.7 q=47.1 size=     512KiB time=00:00:02.23 bitrate=1878.2kbits/s speed=0.0228x elapsed=0:01:37.85    \nframe=   70 fps=0.7 q=47.2 size=     512KiB time=00:00:02.26 bitrate=1850.6kbits/s speed=0.023x elapsed=0:01:38.39    \nframe=   70 fps=0.7 q=47.2 size=     512KiB time=00:00:02.26 bitrate=1850.6kbits/s speed=0.0229x elapsed=0:01:38.90    \nframe=   70 fps=0.7 q=47.2 size=     512KiB time=00:00:02.26 bitrate=1850.6kbits/s speed=0.0228x elapsed=0:01:39.42    \nframe=   70 fps=0.7 q=47.2 size=     512KiB time=00:00:02.26 bitrate=1850.6kbits/s speed=0.0227x elapsed=0:01:39.93    \nframe=   71 fps=0.7 q=42.7 size=     512KiB time=00:00:02.30 bitrate=1823.8kbits/s speed=0.0229x elapsed=0:01:40.46    \nframe=   71 fps=0.7 q=42.7 size=     512KiB time=00:00:02.30 bitrate=1823.8kbits/s speed=0.0228x elapsed=0:01:41.00    \nframe=   71 fps=0.7 q=42.7 size=     512KiB time=00:00:02.30 bitrate=1823.8kbits/s speed=0.0227x elapsed=0:01:41.54    \nframe=   71 fps=0.7 q=42.7 size=     512KiB time=00:00:02.30 bitrate=1823.8kbits/s speed=0.0225x elapsed=0:01:42.08    \nframe=   71 fps=0.7 q=42.7 size=     512KiB time=00:00:02.30 bitrate=1823.8kbits/s speed=0.0224x elapsed=0:01:42.71    \nframe=   71 fps=0.7 q=42.7 size=     512KiB time=00:00:02.30 bitrate=1823.8kbits/s speed=0.0223x elapsed=0:01:43.30    \nframe=   72 fps=0.7 q=45.5 size=     512KiB time=00:00:02.33 bitrate=1797.7kbits/s speed=0.0224x elapsed=0:01:43.97    \nframe=   73 fps=0.7 q=47.2 size=     512KiB time=00:00:02.36 bitrate=1772.4kbits/s speed=0.0226x elapsed=0:01:44.54    \nframe=   73 fps=0.7 q=47.2 size=     512KiB time=00:00:02.36 bitrate=1772.4kbits/s speed=0.0225x elapsed=0:01:45.11    \nframe=   73 fps=0.7 q=47.2 size=     512KiB time=00:00:02.36 bitrate=1772.4kbits/s speed=0.0224x elapsed=0:01:45.68    \nframe=   74 fps=0.7 q=47.9 size=     512KiB time=00:00:02.40 bitrate=1747.8kbits/s speed=0.0226x elapsed=0:01:46.25    \nframe=   74 fps=0.7 q=47.9 size=     512KiB time=00:00:02.40 bitrate=1747.8kbits/s speed=0.0225x elapsed=0:01:46.80    \nframe=   74 fps=0.7 q=47.9 size=     512KiB time=00:00:02.40 bitrate=1747.8kbits/s speed=0.0224x elapsed=0:01:47.34    \nframe=   74 fps=0.7 q=47.9 size=     512KiB time=00:00:02.40 bitrate=1747.8kbits/s speed=0.0223x elapsed=0:01:47.85    \nframe=   74 fps=0.7 q=47.9 size=     512KiB time=00:00:02.40 bitrate=1747.8kbits/s speed=0.0221x elapsed=0:01:48.39    \nframe=   74 fps=0.7 q=47.9 size=     512KiB time=00:00:02.40 bitrate=1747.8kbits/s speed=0.022x elapsed=0:01:48.90    \nframe=   74 fps=0.7 q=47.9 size=     512KiB time=00:00:02.40 bitrate=1747.8kbits/s speed=0.0219x elapsed=0:01:49.45    \nframe=   75 fps=0.7 q=42.5 size=     512KiB time=00:00:02.43 bitrate=1723.8kbits/s speed=0.0221x elapsed=0:01:49.98    \nframe=   75 fps=0.7 q=42.5 size=     512KiB time=00:00:02.43 bitrate=1723.8kbits/s speed=0.022x elapsed=0:01:50.51    \nframe=   75 fps=0.7 q=42.5 size=     512KiB time=00:00:02.43 bitrate=1723.8kbits/s speed=0.0219x elapsed=0:01:51.04    \nframe=   75 fps=0.7 q=42.5 size=     512KiB time=00:00:02.43 bitrate=1723.8kbits/s speed=0.0218x elapsed=0:01:51.59    \nframe=   75 fps=0.7 q=42.5 size=     512KiB time=00:00:02.43 bitrate=1723.8kbits/s speed=0.0217x elapsed=0:01:52.15    \nframe=   75 fps=0.7 q=42.5 size=     512KiB time=00:00:02.43 bitrate=1723.8kbits/s speed=0.0216x elapsed=0:01:52.73    \nframe=   76 fps=0.7 q=45.6 size=     512KiB time=00:00:02.46 bitrate=1700.5kbits/s speed=0.0218x elapsed=0:01:53.28    \nframe=   76 fps=0.7 q=45.6 size=     512KiB time=00:00:02.46 bitrate=1700.5kbits/s speed=0.0217x elapsed=0:01:53.79    \nframe=   76 fps=0.7 q=45.6 size=     512KiB time=00:00:02.46 bitrate=1700.5kbits/s speed=0.0216x elapsed=0:01:54.31    \nframe=   76 fps=0.7 q=45.6 size=     512KiB time=00:00:02.46 bitrate=1700.5kbits/s speed=0.0215x elapsed=0:01:54.88    \nframe=   76 fps=0.7 q=45.6 size=     512KiB time=00:00:02.46 bitrate=1700.5kbits/s speed=0.0214x elapsed=0:01:55.44    \nframe=   76 fps=0.7 q=45.6 size=     512KiB time=00:00:02.46 bitrate=1700.5kbits/s speed=0.0213x elapsed=0:01:56.00    \nframe=   76 fps=0.7 q=45.6 size=     512KiB time=00:00:02.46 bitrate=1700.5kbits/s speed=0.0212x elapsed=0:01:56.54    \nframe=   76 fps=0.6 q=45.6 size=     512KiB time=00:00:02.46 bitrate=1700.5kbits/s speed=0.0211x elapsed=0:01:57.07    \nframe=   78 fps=0.7 q=47.1 size=     512KiB time=00:00:02.53 bitrate=1655.8kbits/s speed=0.0215x elapsed=0:01:57.61    \nframe=   78 fps=0.7 q=47.1 size=     512KiB time=00:00:02.53 bitrate=1655.8kbits/s speed=0.0214x elapsed=0:01:58.13    \nframe=   78 fps=0.7 q=47.1 size=     512KiB time=00:00:02.53 bitrate=1655.8kbits/s speed=0.0213x elapsed=0:01:58.68    \nframe=   79 fps=0.7 q=47.1 size=     512KiB time=00:00:02.56 bitrate=1634.3kbits/s speed=0.0215x elapsed=0:01:59.26    \nframe=   79 fps=0.7 q=47.1 size=     512KiB time=00:00:02.56 bitrate=1634.3kbits/s speed=0.0214x elapsed=0:01:59.82    \nframe=   79 fps=0.7 q=47.1 size=     512KiB time=00:00:02.56 bitrate=1634.3kbits/s speed=0.0213x elapsed=0:02:00.39    \nframe=   79 fps=0.7 q=47.1 size=     512KiB time=00:00:02.56 bitrate=1634.3kbits/s speed=0.0212x elapsed=0:02:00.90    \nframe=   80 fps=0.7 q=42.6 size=     512KiB time=00:00:02.60 bitrate=1613.3kbits/s speed=0.0214x elapsed=0:02:01.43    \nframe=   80 fps=0.7 q=42.6 size=     512KiB time=00:00:02.60 bitrate=1613.3kbits/s speed=0.0213x elapsed=0:02:01.95    \nframe=   80 fps=0.7 q=42.6 size=     512KiB time=00:00:02.60 bitrate=1613.3kbits/s speed=0.0212x elapsed=0:02:02.48    \nframe=   80 fps=0.7 q=42.6 size=     512KiB time=00:00:02.60 bitrate=1613.3kbits/s speed=0.0211x elapsed=0:02:03.01    \nframe=   80 fps=0.6 q=42.6 size=     512KiB time=00:00:02.60 bitrate=1613.3kbits/s speed=0.021x elapsed=0:02:03.54    \nframe=   81 fps=0.7 q=44.4 size=     512KiB time=00:00:02.63 bitrate=1592.9kbits/s speed=0.0212x elapsed=0:02:04.07    \nframe=   81 fps=0.6 q=44.4 size=     512KiB time=00:00:02.63 bitrate=1592.9kbits/s speed=0.0211x elapsed=0:02:04.62    \nframe=   81 fps=0.6 q=44.4 size=     512KiB time=00:00:02.63 bitrate=1592.9kbits/s speed=0.021x elapsed=0:02:05.15    \nframe=   81 fps=0.6 q=44.4 size=     512KiB time=00:00:02.63 bitrate=1592.9kbits/s speed=0.0209x elapsed=0:02:05.71    \nframe=   81 fps=0.6 q=44.4 size=     512KiB time=00:00:02.63 bitrate=1592.9kbits/s speed=0.0209x elapsed=0:02:06.27    \nframe=   81 fps=0.6 q=44.4 size=     512KiB time=00:00:02.63 bitrate=1592.9kbits/s speed=0.0208x elapsed=0:02:06.82    \nframe=   82 fps=0.6 q=47.1 size=     512KiB time=00:00:02.66 bitrate=1573.0kbits/s speed=0.0209x elapsed=0:02:07.38    \nframe=   82 fps=0.6 q=47.1 size=     512KiB time=00:00:02.66 bitrate=1573.0kbits/s speed=0.0208x elapsed=0:02:07.91    \nframe=   83 fps=0.6 q=47.8 size=     512KiB time=00:00:02.70 bitrate=1553.6kbits/s speed=0.021x elapsed=0:02:08.46    \nframe=   83 fps=0.6 q=47.8 size=     512KiB time=00:00:02.70 bitrate=1553.6kbits/s speed=0.0209x elapsed=0:02:09.01    \nframe=   83 fps=0.6 q=47.8 size=     512KiB time=00:00:02.70 bitrate=1553.6kbits/s speed=0.0208x elapsed=0:02:09.55    \nframe=   84 fps=0.6 q=47.9 size=     512KiB time=00:00:02.73 bitrate=1534.6kbits/s speed=0.021x elapsed=0:02:10.15    \nframe=   84 fps=0.6 q=47.9 size=     512KiB time=00:00:02.73 bitrate=1534.6kbits/s speed=0.0209x elapsed=0:02:10.69    \nframe=   84 fps=0.6 q=47.9 size=     512KiB time=00:00:02.73 bitrate=1534.6kbits/s speed=0.0208x elapsed=0:02:11.20    \nframe=   84 fps=0.6 q=47.9 size=     512KiB time=00:00:02.73 bitrate=1534.6kbits/s speed=0.0208x elapsed=0:02:11.71    \nframe=   85 fps=0.6 q=42.4 size=     512KiB time=00:00:02.76 bitrate=1516.1kbits/s speed=0.0209x elapsed=0:02:12.24    \nframe=   85 fps=0.6 q=42.4 size=     512KiB time=00:00:02.76 bitrate=1516.1kbits/s speed=0.0208x elapsed=0:02:12.78    \nframe=   85 fps=0.6 q=42.4 size=     512KiB time=00:00:02.76 bitrate=1516.1kbits/s speed=0.0208x elapsed=0:02:13.30    \nframe=   86 fps=0.6 q=45.6 size=     512KiB time=00:00:02.80 bitrate=1498.1kbits/s speed=0.0209x elapsed=0:02:13.82    \nframe=   88 fps=0.7 q=47.2 size=     512KiB time=00:00:02.86 bitrate=1463.3kbits/s speed=0.0213x elapsed=0:02:14.36    \nframe=   88 fps=0.7 q=47.2 size=     512KiB time=00:00:02.86 bitrate=1463.3kbits/s speed=0.0213x elapsed=0:02:14.86    \nframe=   88 fps=0.6 q=47.2 size=     512KiB time=00:00:02.86 bitrate=1463.3kbits/s speed=0.0212x elapsed=0:02:15.40    \nframe=   88 fps=0.6 q=47.2 size=     512KiB time=00:00:02.86 bitrate=1463.3kbits/s speed=0.0211x elapsed=0:02:15.93    \nframe=   89 fps=0.7 q=42.5 size=     512KiB time=00:00:02.90 bitrate=1446.4kbits/s speed=0.0213x elapsed=0:02:16.46    \nframe=   89 fps=0.6 q=42.5 size=     512KiB time=00:00:02.90 bitrate=1446.4kbits/s speed=0.0212x elapsed=0:02:17.00    \nframe=   89 fps=0.6 q=42.5 size=     512KiB time=00:00:02.90 bitrate=1446.4kbits/s speed=0.0211x elapsed=0:02:17.54    \nframe=   89 fps=0.6 q=42.5 size=     512KiB time=00:00:02.90 bitrate=1446.4kbits/s speed=0.021x elapsed=0:02:18.05    \nframe=   90 fps=0.6 q=45.6 size=     512KiB time=00:00:02.93 bitrate=1430.0kbits/s speed=0.0212x elapsed=0:02:18.59    \nframe=   90 fps=0.6 q=45.6 size=     512KiB time=00:00:02.93 bitrate=1430.0kbits/s speed=0.0211x elapsed=0:02:19.12    \nframe=   92 fps=0.7 q=47.2 size=     512KiB time=00:00:03.00 bitrate=1398.2kbits/s speed=0.0215x elapsed=0:02:19.65    \nframe=   92 fps=0.7 q=47.2 size=     512KiB time=00:00:03.00 bitrate=1398.2kbits/s speed=0.0214x elapsed=0:02:20.18    \nframe=   93 fps=0.7 q=47.1 size=     512KiB time=00:00:03.03 bitrate=1382.9kbits/s speed=0.0216x elapsed=0:02:20.71    \nframe=   93 fps=0.7 q=47.1 size=     512KiB time=00:00:03.03 bitrate=1382.9kbits/s speed=0.0215x elapsed=0:02:21.24    \nframe=   93 fps=0.7 q=47.1 size=     512KiB time=00:00:03.03 bitrate=1382.9kbits/s speed=0.0214x elapsed=0:02:21.77    \nframe=   94 fps=0.7 q=42.2 size=     512KiB time=00:00:03.06 bitrate=1367.8kbits/s speed=0.0216x elapsed=0:02:22.30    \nframe=   94 fps=0.7 q=42.2 size=     512KiB time=00:00:03.06 bitrate=1367.8kbits/s speed=0.0215x elapsed=0:02:22.83    \nframe=   94 fps=0.7 q=42.2 size=     512KiB time=00:00:03.06 bitrate=1367.8kbits/s speed=0.0214x elapsed=0:02:23.37    \nframe=   94 fps=0.7 q=42.2 size=     512KiB time=00:00:03.06 bitrate=1367.8kbits/s speed=0.0213x elapsed=0:02:23.93    \nframe=   95 fps=0.7 q=45.6 size=     768KiB time=00:00:03.10 bitrate=2029.6kbits/s speed=0.0215x elapsed=0:02:24.45    \nframe=   95 fps=0.7 q=45.6 size=     768KiB time=00:00:03.10 bitrate=2029.6kbits/s speed=0.0214x elapsed=0:02:24.96    \nframe=   96 fps=0.7 q=47.0 size=     768KiB time=00:00:03.13 bitrate=2008.0kbits/s speed=0.0215x elapsed=0:02:25.50    \nframe=   97 fps=0.7 q=47.1 size=     768KiB time=00:00:03.16 bitrate=1986.9kbits/s speed=0.0217x elapsed=0:02:26.04    \nframe=   98 fps=0.7 q=47.2 size=     768KiB time=00:00:03.20 bitrate=1966.2kbits/s speed=0.0218x elapsed=0:02:26.57    \nframe=   99 fps=0.7 q=42.2 size=     768KiB time=00:00:03.23 bitrate=1945.9kbits/s speed=0.022x elapsed=0:02:27.11    \nframe=   99 fps=0.7 q=42.2 size=     768KiB time=00:00:03.23 bitrate=1945.9kbits/s speed=0.0219x elapsed=0:02:27.64    \nframe=  100 fps=0.7 q=44.2 size=     768KiB time=00:00:03.26 bitrate=1926.1kbits/s speed=0.022x elapsed=0:02:28.16    \nframe=  100 fps=0.7 q=44.2 size=     768KiB time=00:00:03.26 bitrate=1926.1kbits/s speed=0.022x elapsed=0:02:28.70    \nframe=  100 fps=0.7 q=44.2 size=     768KiB time=00:00:03.26 bitrate=1926.1kbits/s speed=0.0219x elapsed=0:02:29.23    \nframe=  102 fps=0.7 q=47.1 size=     768KiB time=00:00:03.33 bitrate=1887.5kbits/s speed=0.0223x elapsed=0:02:29.76    \nframe=  103 fps=0.7 q=47.1 size=     768KiB time=00:00:03.36 bitrate=1868.9kbits/s speed=0.0224x elapsed=0:02:30.28    \nframe=  103 fps=0.7 q=47.1 size=     768KiB time=00:00:03.36 bitrate=1868.9kbits/s speed=0.0223x elapsed=0:02:30.80    \nframe=  103 fps=0.7 q=47.1 size=     768KiB time=00:00:03.36 bitrate=1868.9kbits/s speed=0.0222x elapsed=0:02:31.32    \nframe=  104 fps=0.7 q=42.4 size=     768KiB time=00:00:03.40 bitrate=1850.5kbits/s speed=0.0224x elapsed=0:02:31.83    \nframe=  104 fps=0.7 q=42.4 size=     768KiB time=00:00:03.40 bitrate=1850.5kbits/s speed=0.0223x elapsed=0:02:32.37    \nframe=  104 fps=0.7 q=42.4 size=     768KiB time=00:00:03.40 bitrate=1850.5kbits/s speed=0.0222x elapsed=0:02:32.91    \nframe=  104 fps=0.7 q=42.4 size=     768KiB time=00:00:03.40 bitrate=1850.5kbits/s speed=0.0222x elapsed=0:02:33.45    \nframe=  104 fps=0.7 q=42.4 size=     768KiB time=00:00:03.40 bitrate=1850.5kbits/s speed=0.0221x elapsed=0:02:33.98    \nframe=  104 fps=0.7 q=42.4 size=     768KiB time=00:00:03.40 bitrate=1850.5kbits/s speed=0.022x elapsed=0:02:34.51    \nframe=  105 fps=0.7 q=46.0 size=     768KiB time=00:00:03.43 bitrate=1832.6kbits/s speed=0.0221x elapsed=0:02:35.03    \nframe=  105 fps=0.7 q=46.0 size=     768KiB time=00:00:03.43 bitrate=1832.6kbits/s speed=0.0221x elapsed=0:02:35.55    \nframe=  108 fps=0.7 q=47.2 size=     768KiB time=00:00:03.53 bitrate=1780.7kbits/s speed=0.0226x elapsed=0:02:36.07    \nframe=  108 fps=0.7 q=47.2 size=     768KiB time=00:00:03.53 bitrate=1780.7kbits/s speed=0.0226x elapsed=0:02:36.59    \nframe=  108 fps=0.7 q=47.2 size=     768KiB time=00:00:03.53 bitrate=1780.7kbits/s speed=0.0225x elapsed=0:02:37.14    \nframe=  108 fps=0.7 q=47.2 size=     768KiB time=00:00:03.53 bitrate=1780.7kbits/s speed=0.0224x elapsed=0:02:37.71    \nframe=  108 fps=0.7 q=47.2 size=     768KiB time=00:00:03.53 bitrate=1780.7kbits/s speed=0.0223x elapsed=0:02:38.28    \nframe=  108 fps=0.7 q=47.2 size=     768KiB time=00:00:03.53 bitrate=1780.7kbits/s speed=0.0222x elapsed=0:02:38.92    \nframe=  108 fps=0.7 q=47.2 size=     768KiB time=00:00:03.53 bitrate=1780.7kbits/s speed=0.0221x elapsed=0:02:39.52    \nframe=  108 fps=0.7 q=47.2 size=     768KiB time=00:00:03.53 bitrate=1780.7kbits/s speed=0.0221x elapsed=0:02:40.16    \nframe=  108 fps=0.7 q=47.2 size=     768KiB time=00:00:03.53 bitrate=1780.7kbits/s speed=0.022x elapsed=0:02:40.75    \nframe=  109 fps=0.7 q=42.4 size=     768KiB time=00:00:03.56 bitrate=1764.1kbits/s speed=0.0221x elapsed=0:02:41.30    \nframe=  109 fps=0.7 q=42.4 size=     768KiB time=00:00:03.56 bitrate=1764.1kbits/s speed=0.022x elapsed=0:02:41.84    \nframe=  109 fps=0.7 q=42.4 size=     768KiB time=00:00:03.56 bitrate=1764.1kbits/s speed=0.022x elapsed=0:02:42.41    \nframe=  109 fps=0.7 q=42.4 size=     768KiB time=00:00:03.56 bitrate=1764.1kbits/s speed=0.0219x elapsed=0:02:42.98    \nframe=  109 fps=0.7 q=42.4 size=     768KiB time=00:00:03.56 bitrate=1764.1kbits/s speed=0.0218x elapsed=0:02:43.55    \nframe=  110 fps=0.7 q=46.0 size=     768KiB time=00:00:03.60 bitrate=1747.7kbits/s speed=0.0219x elapsed=0:02:44.07    \nframe=  110 fps=0.7 q=46.0 size=     768KiB time=00:00:03.60 bitrate=1747.7kbits/s speed=0.0219x elapsed=0:02:44.65    \nframe=  110 fps=0.7 q=46.0 size=     768KiB time=00:00:03.60 bitrate=1747.7kbits/s speed=0.0218x elapsed=0:02:45.19    \nframe=  110 fps=0.7 q=46.0 size=     768KiB time=00:00:03.60 bitrate=1747.7kbits/s speed=0.0217x elapsed=0:02:45.78    \nframe=  110 fps=0.7 q=46.0 size=     768KiB time=00:00:03.60 bitrate=1747.7kbits/s speed=0.0216x elapsed=0:02:46.30    \nframe=  112 fps=0.7 q=47.1 size=     768KiB time=00:00:03.66 bitrate=1715.9kbits/s speed=0.022x elapsed=0:02:46.84    \nframe=  113 fps=0.7 q=47.1 size=     768KiB time=00:00:03.70 bitrate=1700.5kbits/s speed=0.0221x elapsed=0:02:47.36    \nframe=  114 fps=0.7 q=42.3 size=     768KiB time=00:00:03.73 bitrate=1685.3kbits/s speed=0.0222x elapsed=0:02:47.89    \nframe=  114 fps=0.7 q=42.3 size=     768KiB time=00:00:03.73 bitrate=1685.3kbits/s speed=0.0222x elapsed=0:02:48.40    \nframe=  114 fps=0.7 q=42.3 size=     768KiB time=00:00:03.73 bitrate=1685.3kbits/s speed=0.0221x elapsed=0:02:48.92    \nframe=  115 fps=0.7 q=46.0 size=     768KiB time=00:00:03.76 bitrate=1670.4kbits/s speed=0.0222x elapsed=0:02:49.43    \nframe=  115 fps=0.7 q=46.0 size=     768KiB time=00:00:03.76 bitrate=1670.4kbits/s speed=0.0222x elapsed=0:02:49.95    \nframe=  115 fps=0.7 q=46.0 size=     768KiB time=00:00:03.76 bitrate=1670.4kbits/s speed=0.0221x elapsed=0:02:50.47    \nframe=  115 fps=0.7 q=46.0 size=     768KiB time=00:00:03.76 bitrate=1670.4kbits/s speed=0.022x elapsed=0:02:51.01    \nframe=  115 fps=0.7 q=46.0 size=     768KiB time=00:00:03.76 bitrate=1670.4kbits/s speed=0.022x elapsed=0:02:51.57    \nframe=  115 fps=0.7 q=46.0 size=     768KiB time=00:00:03.76 bitrate=1670.4kbits/s speed=0.0219x elapsed=0:02:52.10    \nframe=  116 fps=0.7 q=47.1 size=     768KiB time=00:00:03.80 bitrate=1655.7kbits/s speed=0.022x elapsed=0:02:52.62    \nframe=  117 fps=0.7 q=47.1 size=     768KiB time=00:00:03.83 bitrate=1641.3kbits/s speed=0.0221x elapsed=0:02:53.18    \nframe=  118 fps=0.7 q=47.1 size=     768KiB time=00:00:03.86 bitrate=1627.2kbits/s speed=0.0223x elapsed=0:02:53.74    \nframe=  118 fps=0.7 q=47.1 size=     768KiB time=00:00:03.86 bitrate=1627.2kbits/s speed=0.0222x elapsed=0:02:54.27    \nframe=  118 fps=0.7 q=47.1 size=     768KiB time=00:00:03.86 bitrate=1627.2kbits/s speed=0.0221x elapsed=0:02:54.80    \nframe=  118 fps=0.7 q=47.1 size=     768KiB time=00:00:03.86 bitrate=1627.2kbits/s speed=0.0221x elapsed=0:02:55.35    \nframe=  118 fps=0.7 q=47.1 size=     768KiB time=00:00:03.86 bitrate=1627.2kbits/s speed=0.022x elapsed=0:02:55.87    \nframe=  118 fps=0.7 q=47.1 size=     768KiB time=00:00:03.86 bitrate=1627.2kbits/s speed=0.0219x elapsed=0:02:56.40    \nframe=  119 fps=0.7 q=42.2 size=     768KiB time=00:00:03.90 bitrate=1613.3kbits/s speed=0.022x elapsed=0:02:56.95    \nframe=  119 fps=0.7 q=42.2 size=     768KiB time=00:00:03.90 bitrate=1613.3kbits/s speed=0.022x elapsed=0:02:57.47    \nframe=  119 fps=0.7 q=42.2 size=     768KiB time=00:00:03.90 bitrate=1613.3kbits/s speed=0.0219x elapsed=0:02:57.99    \nframe=  119 fps=0.7 q=42.2 size=     768KiB time=00:00:03.90 bitrate=1613.3kbits/s speed=0.0218x elapsed=0:02:58.52    \nframe=  119 fps=0.7 q=42.2 size=     768KiB time=00:00:03.90 bitrate=1613.3kbits/s speed=0.0218x elapsed=0:02:59.08    \nframe=  120 fps=0.7 q=45.6 size=     768KiB time=00:00:03.93 bitrate=1599.6kbits/s speed=0.0219x elapsed=0:02:59.63    \nframe=  120 fps=0.7 q=45.6 size=     768KiB time=00:00:03.93 bitrate=1599.6kbits/s speed=0.0218x elapsed=0:03:00.27    \nframe=  120 fps=0.7 q=45.6 size=     768KiB time=00:00:03.93 bitrate=1599.6kbits/s speed=0.0217x elapsed=0:03:00.95    \nframe=  120 fps=0.7 q=45.6 size=     768KiB time=00:00:03.93 bitrate=1599.6kbits/s speed=0.0217x elapsed=0:03:01.53    \nframe=  121 fps=0.7 q=47.0 size=     768KiB time=00:00:03.96 bitrate=1586.2kbits/s speed=0.0218x elapsed=0:03:02.08    \nframe=  121 fps=0.7 q=47.0 size=     768KiB time=00:00:03.96 bitrate=1586.2kbits/s speed=0.0217x elapsed=0:03:02.58    \nframe=  121 fps=0.7 q=47.0 size=     768KiB time=00:00:03.96 bitrate=1586.2kbits/s speed=0.0217x elapsed=0:03:03.14    \nframe=  122 fps=0.7 q=47.0 size=     768KiB time=00:00:04.00 bitrate=1573.0kbits/s speed=0.0218x elapsed=0:03:03.69    \nframe=  122 fps=0.7 q=47.0 size=     768KiB time=00:00:04.00 bitrate=1573.0kbits/s speed=0.0217x elapsed=0:03:04.22    \nframe=  122 fps=0.7 q=47.0 size=     768KiB time=00:00:04.00 bitrate=1573.0kbits/s speed=0.0217x elapsed=0:03:04.73    \nframe=  122 fps=0.7 q=47.0 size=     768KiB time=00:00:04.00 bitrate=1573.0kbits/s speed=0.0216x elapsed=0:03:05.26    \nframe=  122 fps=0.7 q=47.0 size=     768KiB time=00:00:04.00 bitrate=1573.0kbits/s speed=0.0215x elapsed=0:03:05.79    \nframe=  122 fps=0.7 q=47.0 size=     768KiB time=00:00:04.00 bitrate=1573.0kbits/s speed=0.0215x elapsed=0:03:06.33    \nframe=  123 fps=0.7 q=42.5 size=     768KiB time=00:00:04.03 bitrate=1560.0kbits/s speed=0.0216x elapsed=0:03:06.90    \nframe=  123 fps=0.7 q=42.5 size=     768KiB time=00:00:04.03 bitrate=1560.0kbits/s speed=0.0215x elapsed=0:03:07.46    \nframe=  123 fps=0.7 q=42.5 size=     768KiB time=00:00:04.03 bitrate=1560.0kbits/s speed=0.0215x elapsed=0:03:08.00    \nframe=  123 fps=0.7 q=42.5 size=     768KiB time=00:00:04.03 bitrate=1560.0kbits/s speed=0.0214x elapsed=0:03:08.55    \nframe=  123 fps=0.7 q=42.5 size=     768KiB time=00:00:04.03 bitrate=1560.0kbits/s speed=0.0213x elapsed=0:03:09.12    \nframe=  123 fps=0.6 q=42.5 size=     768KiB time=00:00:04.03 bitrate=1560.0kbits/s speed=0.0213x elapsed=0:03:09.64    \nframe=  123 fps=0.6 q=42.5 size=     768KiB time=00:00:04.03 bitrate=1560.0kbits/s speed=0.0212x elapsed=0:03:10.19    \nframe=  123 fps=0.6 q=42.5 size=     768KiB time=00:00:04.03 bitrate=1560.0kbits/s speed=0.0211x elapsed=0:03:10.73    \nframe=  123 fps=0.6 q=42.5 size=     768KiB time=00:00:04.03 bitrate=1560.0kbits/s speed=0.0211x elapsed=0:03:11.27    \nframe=  124 fps=0.6 q=45.6 size=     768KiB time=00:00:04.06 bitrate=1547.2kbits/s speed=0.0212x elapsed=0:03:11.80    \nframe=  125 fps=0.6 q=47.1 size=     768KiB time=00:00:04.10 bitrate=1534.6kbits/s speed=0.0213x elapsed=0:03:12.34    \nframe=  125 fps=0.6 q=47.1 size=     768KiB time=00:00:04.10 bitrate=1534.6kbits/s speed=0.0213x elapsed=0:03:12.89    \nframe=  126 fps=0.7 q=47.0 size=     768KiB time=00:00:04.13 bitrate=1522.2kbits/s speed=0.0214x elapsed=0:03:13.43    \nframe=  126 fps=0.6 q=47.0 size=     768KiB time=00:00:04.13 bitrate=1522.2kbits/s speed=0.0213x elapsed=0:03:13.94    \nframe=  126 fps=0.6 q=47.0 size=     768KiB time=00:00:04.13 bitrate=1522.2kbits/s speed=0.0213x elapsed=0:03:14.47    \nframe=  126 fps=0.6 q=47.0 size=     768KiB time=00:00:04.13 bitrate=1522.2kbits/s speed=0.0212x elapsed=0:03:15.02    \nframe=  126 fps=0.6 q=47.0 size=     768KiB time=00:00:04.13 bitrate=1522.2kbits/s speed=0.0211x elapsed=0:03:15.58    \nframe=  126 fps=0.6 q=47.0 size=     768KiB time=00:00:04.13 bitrate=1522.2kbits/s speed=0.0211x elapsed=0:03:16.12    \nframe=  127 fps=0.6 q=42.3 size=    1024KiB time=00:00:04.16 bitrate=2013.4kbits/s speed=0.0212x elapsed=0:03:16.69    \nframe=  127 fps=0.6 q=42.3 size=    1024KiB time=00:00:04.16 bitrate=2013.4kbits/s speed=0.0211x elapsed=0:03:17.26    \nframe=  127 fps=0.6 q=42.3 size=    1024KiB time=00:00:04.16 bitrate=2013.4kbits/s speed=0.0211x elapsed=0:03:17.81    \nframe=  128 fps=0.6 q=46.0 size=    1024KiB time=00:00:04.20 bitrate=1997.4kbits/s speed=0.0212x elapsed=0:03:18.33    \nframe=  128 fps=0.6 q=46.0 size=    1024KiB time=00:00:04.20 bitrate=1997.4kbits/s speed=0.0211x elapsed=0:03:18.85    \nframe=  128 fps=0.6 q=46.0 size=    1024KiB time=00:00:04.20 bitrate=1997.4kbits/s speed=0.0211x elapsed=0:03:19.41    \nframe=  130 fps=0.7 q=47.0 size=    1024KiB time=00:00:04.26 bitrate=1966.2kbits/s speed=0.0213x elapsed=0:03:19.95    \nframe=  130 fps=0.6 q=47.0 size=    1024KiB time=00:00:04.26 bitrate=1966.2kbits/s speed=0.0213x elapsed=0:03:20.53    \nframe=  131 fps=0.7 q=47.1 size=    1024KiB time=00:00:04.30 bitrate=1950.9kbits/s speed=0.0214x elapsed=0:03:21.06    \nframe=  131 fps=0.6 q=47.1 size=    1024KiB time=00:00:04.30 bitrate=1950.9kbits/s speed=0.0213x elapsed=0:03:21.61    \nframe=  131 fps=0.6 q=47.1 size=    1024KiB time=00:00:04.30 bitrate=1950.9kbits/s speed=0.0213x elapsed=0:03:22.15    \nframe=  131 fps=0.6 q=47.1 size=    1024KiB time=00:00:04.30 bitrate=1950.9kbits/s speed=0.0212x elapsed=0:03:22.68    \nframe=  131 fps=0.6 q=47.1 size=    1024KiB time=00:00:04.30 bitrate=1950.9kbits/s speed=0.0212x elapsed=0:03:23.22    \nframe=  132 fps=0.6 q=42.3 size=    1024KiB time=00:00:04.33 bitrate=1935.9kbits/s speed=0.0213x elapsed=0:03:23.74    \nframe=  132 fps=0.6 q=42.3 size=    1024KiB time=00:00:04.33 bitrate=1935.9kbits/s speed=0.0212x elapsed=0:03:24.26    \nframe=  132 fps=0.6 q=42.3 size=    1024KiB time=00:00:04.33 bitrate=1935.9kbits/s speed=0.0212x elapsed=0:03:24.77    \nframe=  132 fps=0.6 q=42.3 size=    1024KiB time=00:00:04.33 bitrate=1935.9kbits/s speed=0.0211x elapsed=0:03:25.29    \nframe=  132 fps=0.6 q=42.3 size=    1024KiB time=00:00:04.33 bitrate=1935.9kbits/s speed=0.0211x elapsed=0:03:25.84    \nframe=  132 fps=0.6 q=42.3 size=    1024KiB time=00:00:04.33 bitrate=1935.9kbits/s speed=0.021x elapsed=0:03:26.37    \nframe=  133 fps=0.6 q=44.3 size=    1024KiB time=00:00:04.36 bitrate=1921.1kbits/s speed=0.0211x elapsed=0:03:26.88    \nframe=  134 fps=0.6 q=47.1 size=    1024KiB time=00:00:04.40 bitrate=1906.6kbits/s speed=0.0212x elapsed=0:03:27.40    \nframe=  135 fps=0.6 q=47.0 size=    1024KiB time=00:00:04.43 bitrate=1892.2kbits/s speed=0.0213x elapsed=0:03:27.92    \nframe=  136 fps=0.7 q=47.1 size=    1024KiB time=00:00:04.46 bitrate=1878.1kbits/s speed=0.0214x elapsed=0:03:28.43    \nframe=  136 fps=0.7 q=47.1 size=    1024KiB time=00:00:04.46 bitrate=1878.1kbits/s speed=0.0214x elapsed=0:03:28.95    \nframe=  137 fps=0.7 q=42.9 size=    1024KiB time=00:00:04.50 bitrate=1864.2kbits/s speed=0.0215x elapsed=0:03:29.47    \nframe=  137 fps=0.7 q=42.9 size=    1024KiB time=00:00:04.50 bitrate=1864.2kbits/s speed=0.0214x elapsed=0:03:29.99    \nframe=  137 fps=0.7 q=42.9 size=    1024KiB time=00:00:04.50 bitrate=1864.2kbits/s speed=0.0214x elapsed=0:03:30.51    \nframe=  137 fps=0.6 q=42.9 size=    1024KiB time=00:00:04.50 bitrate=1864.2kbits/s speed=0.0213x elapsed=0:03:31.03    \nframe=  138 fps=0.7 q=45.9 size=    1024KiB time=00:00:04.53 bitrate=1850.5kbits/s speed=0.0214x elapsed=0:03:31.56    \nframe=  138 fps=0.7 q=45.9 size=    1024KiB time=00:00:04.53 bitrate=1850.5kbits/s speed=0.0214x elapsed=0:03:32.09    \nframe=  138 fps=0.6 q=45.9 size=    1024KiB time=00:00:04.53 bitrate=1850.5kbits/s speed=0.0213x elapsed=0:03:32.62    \nframe=  140 fps=0.7 q=47.1 size=    1024KiB time=00:00:04.60 bitrate=1823.7kbits/s speed=0.0216x elapsed=0:03:33.15    \nframe=  141 fps=0.7 q=47.1 size=    1024KiB time=00:00:04.63 bitrate=1810.6kbits/s speed=0.0217x elapsed=0:03:33.68    \nframe=  141 fps=0.7 q=47.1 size=    1024KiB time=00:00:04.63 bitrate=1810.6kbits/s speed=0.0216x elapsed=0:03:34.21    \nframe=  142 fps=0.7 q=43.2 size=    1024KiB time=00:00:04.66 bitrate=1797.6kbits/s speed=0.0217x elapsed=0:03:34.75    \nframe=  142 fps=0.7 q=43.2 size=    1024KiB time=00:00:04.66 bitrate=1797.6kbits/s speed=0.0217x elapsed=0:03:35.27    \nframe=  142 fps=0.7 q=43.2 size=    1024KiB time=00:00:04.66 bitrate=1797.6kbits/s speed=0.0216x elapsed=0:03:35.79    \nframe=  143 fps=0.7 q=45.3 size=    1024KiB time=00:00:04.70 bitrate=1784.9kbits/s speed=0.0217x elapsed=0:03:36.31    \nframe=  143 fps=0.7 q=45.3 size=    1024KiB time=00:00:04.70 bitrate=1784.9kbits/s speed=0.0217x elapsed=0:03:36.83    \nframe=  144 fps=0.7 q=47.1 size=    1024KiB time=00:00:04.73 bitrate=1772.3kbits/s speed=0.0218x elapsed=0:03:37.35    \nframe=  145 fps=0.7 q=47.0 size=    1024KiB time=00:00:04.76 bitrate=1759.9kbits/s speed=0.0219x elapsed=0:03:37.88    \nframe=  146 fps=0.7 q=47.1 size=    1024KiB time=00:00:04.80 bitrate=1747.7kbits/s speed=0.022x elapsed=0:03:38.41    \nframe=  146 fps=0.7 q=47.1 size=    1024KiB time=00:00:04.80 bitrate=1747.7kbits/s speed=0.0219x elapsed=0:03:38.95    \nframe=  147 fps=0.7 q=44.9 size=    1024KiB time=00:00:04.83 bitrate=1735.6kbits/s speed=0.022x elapsed=0:03:39.47    \nframe=  147 fps=0.7 q=44.9 size=    1024KiB time=00:00:04.83 bitrate=1735.6kbits/s speed=0.022x elapsed=0:03:39.99    \nframe=  148 fps=0.7 q=45.5 size=    1024KiB time=00:00:04.86 bitrate=1723.8kbits/s speed=0.0221x elapsed=0:03:40.51    \nframe=  148 fps=0.7 q=45.5 size=    1024KiB time=00:00:04.86 bitrate=1723.8kbits/s speed=0.022x elapsed=0:03:41.02    \nframe=  148 fps=0.7 q=45.5 size=    1024KiB time=00:00:04.86 bitrate=1723.8kbits/s speed=0.022x elapsed=0:03:41.54    \nframe=  149 fps=0.7 q=47.1 size=    1024KiB time=00:00:04.90 bitrate=1712.0kbits/s speed=0.0221x elapsed=0:03:42.06    \n[mp4 @ 00000134e72ea980] Starting second pass: moving the moov atom to the beginning of the file\n[out#0/mp4 @ 00000134e72f1700] video:1221KiB audio:0KiB subtitle:0KiB other streams:0KiB global headers:2KiB muxing overhead: 0.410759%\nframe=  150 fps=0.7 q=47.1 Lsize=    1226KiB time=00:00:04.93 bitrate=2036.0kbits/s speed=0.0222x elapsed=0:03:42.16    \nx265 [info]: frame I:      1, Avg QP:40.41  kb/s: 9254.64 \nx265 [info]: frame P:     31, Avg QP:42.59  kb/s: 3990.74 \nx265 [info]: frame B:    118, Avg QP:46.80  kb/s: 1415.06 \nx265 [info]: Weighted P-Frames: Y:0.0% UV:0.0%\n\nencoded 150 frames in 221.59s (0.68 fps), 1999.63 kb/s, Avg QP:45.89\n",
  "seconds": 222.49135184288025,
  "probe_out": {}
}